<svg width="1920" height="1080"><path d="M-195,-169L-1,-178L396,-245Z" fill="#e5eff9" stroke="#e5eff9" stroke-width="1.51"></path><path d="M882,1317L736,1343L1217,1319Z" fill="#4270a4" stroke="#4270a4" stroke-width="1.51"></path><path d="M775,-263L1174,-244L1662,-242Z" fill="#a6c6e4" stroke="#a6c6e4" stroke-width="1.51"></path><path d="M1958,1255L1657,1300L2032,1259Z" fill="#09468c" stroke="#09468c" stroke-width="1.51"></path><path d="M2094,-228L1934,-78L2100,-44Z" fill="#8190ba" stroke="#8190ba" stroke-width="1.51"></path><path d="M1960,850L2064,1033L2101,835Z" fill="#1c5a9b" stroke="#1c5a9b" stroke-width="1.51"></path><path d="M2064,1033L2066,1091L2101,835Z" fill="#155294" stroke="#155294" stroke-width="1.51"></path><path d="M2090,389L1959,399L2104,567Z" fill="#4e78ab" stroke="#4e78ab" stroke-width="1.51"></path><path d="M2085,681L2101,835L2104,567Z" fill="#2f669f" stroke="#2f669f" stroke-width="1.51"></path><path d="M2100,-44L1930,129L2140,105Z" fill="#7588b5" stroke="#7588b5" stroke-width="1.51"></path><path d="M1930,129L2075,268L2140,105Z" fill="#6e85b4" stroke="#6e85b4" stroke-width="1.51"></path><path d="M2094,-228L2100,-44L2140,105Z" fill="#7b89b3" stroke="#7b89b3" stroke-width="1.51"></path><path d="M2075,268L2090,389L2140,105Z" fill="#647fac" stroke="#647fac" stroke-width="1.51"></path><path d="M2090,389L2104,567L2140,105Z" fill="#597aa8" stroke="#597aa8" stroke-width="1.51"></path><path d="M2104,567L2101,835L2140,105Z" fill="#4571a4" stroke="#4571a4" stroke-width="1.51"></path><path d="M1662,-242L1810,-214L1910,-236Z" fill="#90a3cf" stroke="#90a3cf" stroke-width="1.51"></path><path d="M1774,1237L1657,1300L1958,1255Z" fill="#0c4c92" stroke="#0c4c92" stroke-width="1.51"></path><path d="M1960,850L1955,1029L2064,1033Z" fill="#15589c" stroke="#15589c" stroke-width="1.51"></path><path d="M1930,1191L2032,1259L2066,1091Z" fill="#09468d" stroke="#09468d" stroke-width="1.51"></path><path d="M1930,129L1919,192L2075,268Z" fill="#6e89b9" stroke="#6e89b9" stroke-width="1.51"></path><path d="M1931,552L1971,704L2085,681Z" fill="#376fa9" stroke="#376fa9" stroke-width="1.51"></path><path d="M2075,268L1959,399L2090,389Z" fill="#5b7eae" stroke="#5b7eae" stroke-width="1.51"></path><path d="M1910,-236L1934,-78L2094,-228Z" fill="#8796c1" stroke="#8796c1" stroke-width="1.51"></path><path d="M1934,-78L1930,129L2100,-44Z" fill="#7c8fbd" stroke="#7c8fbd" stroke-width="1.51"></path><path d="M2085,681L1971,704L2101,835Z" fill="#2b66a0" stroke="#2b66a0" stroke-width="1.51"></path><path d="M1971,704L1960,850L2101,835Z" fill="#2664a2" stroke="#2664a2" stroke-width="1.51"></path><path d="M1931,552L2085,681L2104,567Z" fill="#3b6fa7" stroke="#3b6fa7" stroke-width="1.51"></path><path d="M1959,399L1931,552L2104,567Z" fill="#4778ae" stroke="#4778ae" stroke-width="1.51"></path><path d="M1919,192L1959,399L2075,268Z" fill="#6485b5" stroke="#6485b5" stroke-width="1.51"></path><path d="M1930,1191L1958,1255L2032,1259Z" fill="#094489" stroke="#094489" stroke-width="1.51"></path><path d="M2064,1033L1955,1029L2066,1091Z" fill="#115094" stroke="#115094" stroke-width="1.51"></path><path d="M1955,1029L1930,1191L2066,1091Z" fill="#0d4e95" stroke="#0d4e95" stroke-width="1.51"></path><path d="M1174,-244L1483,-197L1662,-242Z" fill="#9ab8dd" stroke="#9ab8dd" stroke-width="1.51"></path><path d="M1837,48L1930,129L1934,-78Z" fill="#7c93c4" stroke="#7c93c4" stroke-width="1.51"></path><path d="M1788,1108L1930,1191L1955,1029Z" fill="#0c539c" stroke="#0c539c" stroke-width="1.51"></path><path d="M1799,1040L1788,1108L1955,1029Z" fill="#1159a2" stroke="#1159a2" stroke-width="1.51"></path><path d="M1805,881L1799,1040L1955,1029Z" fill="#155fa7" stroke="#155fa7" stroke-width="1.51"></path><path d="M1791,487L1931,552L1959,399Z" fill="#4d7fb7" stroke="#4d7fb7" stroke-width="1.51"></path><path d="M1822,390L1791,487L1959,399Z" fill="#5685bc" stroke="#5685bc" stroke-width="1.51"></path><path d="M1919,192L1822,390L1959,399Z" fill="#6289bb" stroke="#6289bb" stroke-width="1.51"></path><path d="M1758,736L1805,881L1960,850Z" fill="#266caf" stroke="#266caf" stroke-width="1.51"></path><path d="M1805,881L1955,1029L1960,850Z" fill="#1b61a6" stroke="#1b61a6" stroke-width="1.51"></path><path d="M1758,736L1960,850L1971,704Z" fill="#2a6dad" stroke="#2a6dad" stroke-width="1.51"></path><path d="M1931,552L1758,736L1971,704Z" fill="#3774b2" stroke="#3774b2" stroke-width="1.51"></path><path d="M1910,-236L1810,-214L1934,-78Z" fill="#8a9cc9" stroke="#8a9cc9" stroke-width="1.51"></path><path d="M1930,1191L1774,1237L1958,1255Z" fill="#094a91" stroke="#094a91" stroke-width="1.51"></path><path d="M1755,190L1822,390L1919,192Z" fill="#6b8fc2" stroke="#6b8fc2" stroke-width="1.51"></path><path d="M1791,487L1758,736L1931,552Z" fill="#407cb8" stroke="#407cb8" stroke-width="1.51"></path><path d="M1779,-94L1837,48L1934,-78Z" fill="#8399c9" stroke="#8399c9" stroke-width="1.51"></path><path d="M1810,-214L1779,-94L1934,-78Z" fill="#889dcb" stroke="#889dcb" stroke-width="1.51"></path><path d="M1755,190L1919,192L1930,129Z" fill="#7390c3" stroke="#7390c3" stroke-width="1.51"></path><path d="M1788,1108L1774,1237L1930,1191Z" fill="#0a519a" stroke="#0a519a" stroke-width="1.51"></path><path d="M1837,48L1755,190L1930,129Z" fill="#7994c6" stroke="#7994c6" stroke-width="1.51"></path><path d="M1672,710L1758,736L1791,487Z" fill="#3c7eba" stroke="#3c7eba" stroke-width="1.51"></path><path d="M1625,545L1672,710L1791,487Z" fill="#4484be" stroke="#4484be" stroke-width="1.51"></path><path d="M1666,936L1799,1040L1805,881Z" fill="#1b66ad" stroke="#1b66ad" stroke-width="1.51"></path><path d="M1755,190L1639,277L1822,390Z" fill="#6b94c5" stroke="#6b94c5" stroke-width="1.51"></path><path d="M1779,-94L1666,103L1837,48Z" fill="#819ccb" stroke="#819ccb" stroke-width="1.51"></path><path d="M1666,103L1755,190L1837,48Z" fill="#7c99ca" stroke="#7c99ca" stroke-width="1.51"></path><path d="M1608,415L1791,487L1822,390Z" fill="#588cc1" stroke="#588cc1" stroke-width="1.51"></path><path d="M1639,277L1608,415L1822,390Z" fill="#6393c5" stroke="#6393c5" stroke-width="1.51"></path><path d="M1655,-109L1666,103L1779,-94Z" fill="#86a2cf" stroke="#86a2cf" stroke-width="1.51"></path><path d="M1667,1136L1774,1237L1788,1108Z" fill="#0f57a1" stroke="#0f57a1" stroke-width="1.51"></path><path d="M1758,736L1603,844L1805,881Z" fill="#2973b3" stroke="#2973b3" stroke-width="1.51"></path><path d="M1603,844L1666,936L1805,881Z" fill="#246fb2" stroke="#246fb2" stroke-width="1.51"></path><path d="M1655,-109L1779,-94L1810,-214Z" fill="#8ba3cf" stroke="#8ba3cf" stroke-width="1.51"></path><path d="M1662,-242L1655,-109L1810,-214Z" fill="#8fa7d2" stroke="#8fa7d2" stroke-width="1.51"></path><path d="M1513,1238L1217,1319L1657,1300Z" fill="#1e5b9b" stroke="#1e5b9b" stroke-width="1.51"></path><path d="M1667,1136L1788,1108L1799,1040Z" fill="#135ba4" stroke="#135ba4" stroke-width="1.51"></path><path d="M1666,936L1667,1136L1799,1040Z" fill="#1862a9" stroke="#1862a9" stroke-width="1.51"></path><path d="M1608,415L1625,545L1791,487Z" fill="#528cc2" stroke="#528cc2" stroke-width="1.51"></path><path d="M1672,710L1603,844L1758,736Z" fill="#2f79b8" stroke="#2f79b8" stroke-width="1.51"></path><path d="M1667,1136L1657,1300L1774,1237Z" fill="#11549a" stroke="#11549a" stroke-width="1.51"></path><path d="M1666,103L1639,277L1755,190Z" fill="#769acb" stroke="#769acb" stroke-width="1.51"></path><path d="M1483,-48L1512,69L1655,-109Z" fill="#89aad6" stroke="#89aad6" stroke-width="1.51"></path><path d="M1483,-197L1655,-109L1662,-242Z" fill="#92add7" stroke="#92add7" stroke-width="1.51"></path><path d="M1458,205L1639,277L1666,103Z" fill="#78a0cf" stroke="#78a0cf" stroke-width="1.51"></path><path d="M1512,69L1458,205L1666,103Z" fill="#80a5d3" stroke="#80a5d3" stroke-width="1.51"></path><path d="M1655,-109L1512,69L1666,103Z" fill="#85a5d2" stroke="#85a5d2" stroke-width="1.51"></path><path d="M1526,893L1485,1026L1666,936Z" fill="#2171b5" stroke="#2171b5" stroke-width="1.51"></path><path d="M1513,1238L1657,1300L1667,1136Z" fill="#15589e" stroke="#15589e" stroke-width="1.51"></path><path d="M1666,936L1485,1026L1667,1136Z" fill="#1c68ae" stroke="#1c68ae" stroke-width="1.51"></path><path d="M1485,1026L1490,1099L1667,1136Z" fill="#1c67ad" stroke="#1c67ad" stroke-width="1.51"></path><path d="M1625,545L1462,674L1672,710Z" fill="#4087c1" stroke="#4087c1" stroke-width="1.51"></path><path d="M1462,674L1603,844L1672,710Z" fill="#3480bd" stroke="#3480bd" stroke-width="1.51"></path><path d="M1603,844L1526,893L1666,936Z" fill="#2674b6" stroke="#2674b6" stroke-width="1.51"></path><path d="M1490,1099L1513,1238L1667,1136Z" fill="#1761a8" stroke="#1761a8" stroke-width="1.51"></path><path d="M1501,376L1608,415L1639,277Z" fill="#669aca" stroke="#669aca" stroke-width="1.51"></path><path d="M1305,1244L1217,1319L1513,1238Z" fill="#2662a1" stroke="#2662a1" stroke-width="1.51"></path><path d="M1483,-197L1483,-48L1655,-109Z" fill="#90aed8" stroke="#90aed8" stroke-width="1.51"></path><path d="M1608,415L1459,563L1625,545Z" fill="#5191c7" stroke="#5191c7" stroke-width="1.51"></path><path d="M1459,563L1462,674L1625,545Z" fill="#488ec5" stroke="#488ec5" stroke-width="1.51"></path><path d="M1458,205L1501,376L1639,277Z" fill="#6fa0ce" stroke="#6fa0ce" stroke-width="1.51"></path><path d="M1501,376L1459,563L1608,415Z" fill="#5a97c9" stroke="#5a97c9" stroke-width="1.51"></path><path d="M1174,-244L1369,-164L1483,-197Z" fill="#9cbddf" stroke="#9cbddf" stroke-width="1.51"></path><path d="M1462,674L1526,893L1603,844Z" fill="#307ebc" stroke="#307ebc" stroke-width="1.51"></path><path d="M319,1297L115,1329L736,1343Z" fill="#6e83b0" stroke="#6e83b0" stroke-width="1.51"></path><path d="M1483,-197L1369,-164L1483,-48Z" fill="#94b4db" stroke="#94b4db" stroke-width="1.51"></path><path d="M1305,444L1459,563L1501,376Z" fill="#5d9ccc" stroke="#5d9ccc" stroke-width="1.51"></path><path d="M1490,1099L1344,1181L1513,1238Z" fill="#2066aa" stroke="#2066aa" stroke-width="1.51"></path><path d="M1462,674L1373,678L1526,893Z" fill="#3987c1" stroke="#3987c1" stroke-width="1.51"></path><path d="M1373,678L1289,848L1526,893Z" fill="#3885bf" stroke="#3885bf" stroke-width="1.51"></path><path d="M1306,1012L1485,1026L1526,893Z" fill="#2875b7" stroke="#2875b7" stroke-width="1.51"></path><path d="M1289,848L1306,1012L1526,893Z" fill="#307dbc" stroke="#307dbc" stroke-width="1.51"></path><path d="M1458,205L1316,232L1501,376Z" fill="#75a6d1" stroke="#75a6d1" stroke-width="1.51"></path><path d="M1483,-48L1339,111L1512,69Z" fill="#89aed7" stroke="#89aed7" stroke-width="1.51"></path><path d="M1339,111L1458,205L1512,69Z" fill="#84abd6" stroke="#84abd6" stroke-width="1.51"></path><path d="M1344,1181L1305,1244L1513,1238Z" fill="#2465a6" stroke="#2465a6" stroke-width="1.51"></path><path d="M1305,444L1382,576L1459,563Z" fill="#549acb" stroke="#549acb" stroke-width="1.51"></path><path d="M1316,232L1305,444L1501,376Z" fill="#6ea6d0" stroke="#6ea6d0" stroke-width="1.51"></path><path d="M1459,563L1382,576L1462,674Z" fill="#4a92c7" stroke="#4a92c7" stroke-width="1.51"></path><path d="M1312,-109L1339,111L1483,-48Z" fill="#8fb4da" stroke="#8fb4da" stroke-width="1.51"></path><path d="M1485,1026L1306,1012L1490,1099Z" fill="#2770b3" stroke="#2770b3" stroke-width="1.51"></path><path d="M1306,1012L1344,1181L1490,1099Z" fill="#286fb1" stroke="#286fb1" stroke-width="1.51"></path><path d="M1369,-164L1312,-109L1483,-48Z" fill="#94b7dc" stroke="#94b7dc" stroke-width="1.51"></path><path d="M1382,576L1373,678L1462,674Z" fill="#4791c6" stroke="#4791c6" stroke-width="1.51"></path><path d="M1339,111L1316,232L1458,205Z" fill="#81add6" stroke="#81add6" stroke-width="1.51"></path><path d="M1074,1278L882,1317L1217,1319Z" fill="#3a6da4" stroke="#3a6da4" stroke-width="1.51"></path><path d="M1240,266L1305,444L1316,232Z" fill="#76add3" stroke="#76add3" stroke-width="1.51"></path><path d="M1312,-109L1238,133L1339,111Z" fill="#8fb7db" stroke="#8fb7db" stroke-width="1.51"></path><path d="M1235,696L1289,848L1373,678Z" fill="#4190c5" stroke="#4190c5" stroke-width="1.51"></path><path d="M1305,444L1197,504L1382,576Z" fill="#5ba0ce" stroke="#5ba0ce" stroke-width="1.51"></path><path d="M1235,696L1373,678L1382,576Z" fill="#4a94c8" stroke="#4a94c8" stroke-width="1.51"></path><path d="M1197,504L1235,696L1382,576Z" fill="#529ccb" stroke="#529ccb" stroke-width="1.51"></path><path d="M1174,-244L1312,-109L1369,-164Z" fill="#9cbfe0" stroke="#9cbfe0" stroke-width="1.51"></path><path d="M1133,-73L1238,133L1312,-109Z" fill="#95bddf" stroke="#95bddf" stroke-width="1.51"></path><path d="M1235,696L1199,786L1289,848Z" fill="#4290c5" stroke="#4290c5" stroke-width="1.51"></path><path d="M1238,133L1316,232L1339,111Z" fill="#86b2d9" stroke="#86b2d9" stroke-width="1.51"></path><path d="M1143,1174L1305,1244L1344,1181Z" fill="#2b6dac" stroke="#2b6dac" stroke-width="1.51"></path><path d="M1306,1012L1168,1038L1344,1181Z" fill="#2f77b5" stroke="#2f77b5" stroke-width="1.51"></path><path d="M1168,1038L1143,1174L1344,1181Z" fill="#3175b3" stroke="#3175b3" stroke-width="1.51"></path><path d="M775,-263L1075,-198L1174,-244Z" fill="#afcfe8" stroke="#afcfe8" stroke-width="1.51"></path><path d="M1240,266L1129,354L1305,444Z" fill="#73aed4" stroke="#73aed4" stroke-width="1.51"></path><path d="M1289,848L1168,1038L1306,1012Z" fill="#3481bd" stroke="#3481bd" stroke-width="1.51"></path><path d="M1174,-244L1133,-73L1312,-109Z" fill="#9ec2e1" stroke="#9ec2e1" stroke-width="1.51"></path><path d="M1238,133L1240,266L1316,232Z" fill="#82b2d8" stroke="#82b2d8" stroke-width="1.51"></path><path d="M1086,974L1168,1038L1289,848Z" fill="#3a85c0" stroke="#3a85c0" stroke-width="1.51"></path><path d="M1129,354L1197,504L1305,444Z" fill="#6aa9d3" stroke="#6aa9d3" stroke-width="1.51"></path><path d="M1143,1174L1217,1319L1305,1244Z" fill="#2e6ba7" stroke="#2e6ba7" stroke-width="1.51"></path><path d="M1199,786L1086,974L1289,848Z" fill="#3f8bc3" stroke="#3f8bc3" stroke-width="1.51"></path><path d="M1075,-198L1133,-73L1174,-244Z" fill="#a4c7e4" stroke="#a4c7e4" stroke-width="1.51"></path><path d="M1143,1174L1074,1278L1217,1319Z" fill="#346da7" stroke="#346da7" stroke-width="1.51"></path><path d="M1197,504L1088,647L1235,696Z" fill="#569fce" stroke="#569fce" stroke-width="1.51"></path><path d="M1133,-73L1055,-30L1238,133Z" fill="#98c0e0" stroke="#98c0e0" stroke-width="1.51"></path><path d="M1055,-30L1031,185L1238,133Z" fill="#95bedf" stroke="#95bedf" stroke-width="1.51"></path><path d="M1238,133L1031,185L1240,266Z" fill="#89b7db" stroke="#89b7db" stroke-width="1.51"></path><path d="M1031,185L1129,354L1240,266Z" fill="#83b6d9" stroke="#83b6d9" stroke-width="1.51"></path><path d="M1088,647L1199,786L1235,696Z" fill="#4d98ca" stroke="#4d98ca" stroke-width="1.51"></path><path d="M989,130L1031,185L1055,-30Z" fill="#9ac3e2" stroke="#9ac3e2" stroke-width="1.51"></path><path d="M1043,519L1088,647L1197,504Z" fill="#60a6d1" stroke="#60a6d1" stroke-width="1.51"></path><path d="M1003,803L1086,974L1199,786Z" fill="#4891c6" stroke="#4891c6" stroke-width="1.51"></path><path d="M1129,354L1044,393L1197,504Z" fill="#71afd5" stroke="#71afd5" stroke-width="1.51"></path><path d="M1044,393L1043,519L1197,504Z" fill="#6cacd5" stroke="#6cacd5" stroke-width="1.51"></path><path d="M1088,647L1003,803L1199,786Z" fill="#4f99ca" stroke="#4f99ca" stroke-width="1.51"></path><path d="M1025,1105L1143,1174L1168,1038Z" fill="#3b7cb8" stroke="#3b7cb8" stroke-width="1.51"></path><path d="M1086,974L1025,1105L1168,1038Z" fill="#3f81bc" stroke="#3f81bc" stroke-width="1.51"></path><path d="M483,1284L319,1297L736,1343Z" fill="#6781af" stroke="#6781af" stroke-width="1.51"></path><path d="M775,-263L876,-171L1075,-198Z" fill="#b4d4ea" stroke="#b4d4ea" stroke-width="1.51"></path><path d="M1031,185L1044,393L1129,354Z" fill="#82b8da" stroke="#82b8da" stroke-width="1.51"></path><path d="M1075,-198L1055,-30L1133,-73Z" fill="#a2c7e4" stroke="#a2c7e4" stroke-width="1.51"></path><path d="M1025,1105L1074,1278L1143,1174Z" fill="#3b77b2" stroke="#3b77b2" stroke-width="1.51"></path><path d="M1031,185L912,345L1044,393Z" fill="#86bbdc" stroke="#86bbdc" stroke-width="1.51"></path><path d="M1025,1105L915,1101L1074,1278Z" fill="#417cb7" stroke="#417cb7" stroke-width="1.51"></path><path d="M915,1101L882,1317L1074,1278Z" fill="#4377b0" stroke="#4377b0" stroke-width="1.51"></path><path d="M876,-171L1055,-30L1075,-198Z" fill="#a9cce7" stroke="#a9cce7" stroke-width="1.51"></path><path d="M915,1101L1025,1105L1086,974Z" fill="#4484bd" stroke="#4484bd" stroke-width="1.51"></path><path d="M1003,803L909,852L1086,974Z" fill="#4d93c8" stroke="#4d93c8" stroke-width="1.51"></path><path d="M871,678L1003,803L1088,647Z" fill="#5aa1cf" stroke="#5aa1cf" stroke-width="1.51"></path><path d="M1043,519L925,544L1088,647Z" fill="#65a9d4" stroke="#65a9d4" stroke-width="1.51"></path><path d="M925,544L871,678L1088,647Z" fill="#64a8d3" stroke="#64a8d3" stroke-width="1.51"></path><path d="M846,1012L915,1101L1086,974Z" fill="#4a89c1" stroke="#4a89c1" stroke-width="1.51"></path><path d="M909,852L846,1012L1086,974Z" fill="#4d90c6" stroke="#4d90c6" stroke-width="1.51"></path><path d="M876,-171L857,-45L1055,-30Z" fill="#aacee7" stroke="#aacee7" stroke-width="1.51"></path><path d="M889,192L912,345L1031,185Z" fill="#91c0df" stroke="#91c0df" stroke-width="1.51"></path><path d="M925,544L1043,519L1044,393Z" fill="#70afd7" stroke="#70afd7" stroke-width="1.51"></path><path d="M912,345L925,544L1044,393Z" fill="#7ab5d9" stroke="#7ab5d9" stroke-width="1.51"></path><path d="M857,-45L989,130L1055,-30Z" fill="#a1c8e5" stroke="#a1c8e5" stroke-width="1.51"></path><path d="M857,-45L832,82L989,130Z" fill="#a4cae5" stroke="#a4cae5" stroke-width="1.51"></path><path d="M989,130L889,192L1031,185Z" fill="#96c2e1" stroke="#96c2e1" stroke-width="1.51"></path><path d="M871,678L909,852L1003,803Z" fill="#599fcd" stroke="#599fcd" stroke-width="1.51"></path><path d="M832,82L889,192L989,130Z" fill="#9fc6e3" stroke="#9fc6e3" stroke-width="1.51"></path><path d="M871,678L694,883L909,852Z" fill="#62a2ce" stroke="#62a2ce" stroke-width="1.51"></path><path d="M889,192L764,253L912,345Z" fill="#96c4e0" stroke="#96c4e0" stroke-width="1.51"></path><path d="M775,1115L882,1317L915,1101Z" fill="#4f80b8" stroke="#4f80b8" stroke-width="1.51"></path><path d="M745,524L871,678L925,544Z" fill="#71b0d7" stroke="#71b0d7" stroke-width="1.51"></path><path d="M912,345L756,389L925,544Z" fill="#82badb" stroke="#82badb" stroke-width="1.51"></path><path d="M756,389L745,524L925,544Z" fill="#80b8db" stroke="#80b8db" stroke-width="1.51"></path><path d="M694,883L699,945L846,1012Z" fill="#6199ca" stroke="#6199ca" stroke-width="1.51"></path><path d="M694,883L846,1012L909,852Z" fill="#5d98ca" stroke="#5d98ca" stroke-width="1.51"></path><path d="M846,1012L775,1115L915,1101Z" fill="#548ac0" stroke="#548ac0" stroke-width="1.51"></path><path d="M775,1115L736,1343L882,1317Z" fill="#527caf" stroke="#527caf" stroke-width="1.51"></path><path d="M764,253L756,389L912,345Z" fill="#92c3df" stroke="#92c3df" stroke-width="1.51"></path><path d="M745,524L692,660L871,678Z" fill="#75b1d7" stroke="#75b1d7" stroke-width="1.51"></path><path d="M692,660L694,883L871,678Z" fill="#6caad2" stroke="#6caad2" stroke-width="1.51"></path><path d="M754,-99L857,-45L876,-171Z" fill="#b3d3ea" stroke="#b3d3ea" stroke-width="1.51"></path><path d="M832,82L764,253L889,192Z" fill="#a0c8e3" stroke="#a0c8e3" stroke-width="1.51"></path><path d="M-1,-178L154,-180L396,-245Z" fill="#e1ecf8" stroke="#e1ecf8" stroke-width="1.51"></path><path d="M775,-263L754,-99L876,-171Z" fill="#bad8eb" stroke="#bad8eb" stroke-width="1.51"></path><path d="M754,-99L679,59L832,82Z" fill="#b2d2e8" stroke="#b2d2e8" stroke-width="1.51"></path><path d="M754,-99L832,82L857,-45Z" fill="#afd0e8" stroke="#afd0e8" stroke-width="1.51"></path><path d="M396,-245L605,-179L775,-263Z" fill="#cce2f0" stroke="#cce2f0" stroke-width="1.51"></path><path d="M679,59L764,253L832,82Z" fill="#aacee6" stroke="#aacee6" stroke-width="1.51"></path><path d="M699,945L775,1115L846,1012Z" fill="#5c91c5" stroke="#5c91c5" stroke-width="1.51"></path><path d="M692,660L591,677L694,883Z" fill="#75aed4" stroke="#75aed4" stroke-width="1.51"></path><path d="M588,485L745,524L756,389Z" fill="#8bbfdd" stroke="#8bbfdd" stroke-width="1.51"></path><path d="M679,59L595,91L764,253Z" fill="#b0d1e7" stroke="#b0d1e7" stroke-width="1.51"></path><path d="M595,91L567,285L764,253Z" fill="#abcfe5" stroke="#abcfe5" stroke-width="1.51"></path><path d="M567,285L756,389L764,253Z" fill="#9ec9e1" stroke="#9ec9e1" stroke-width="1.51"></path><path d="M605,-179L754,-99L775,-263Z" fill="#c1dced" stroke="#c1dced" stroke-width="1.51"></path><path d="M699,945L594,1094L775,1115Z" fill="#6392c5" stroke="#6392c5" stroke-width="1.51"></path><path d="M583,1260L736,1343L775,1115Z" fill="#5c82b3" stroke="#5c82b3" stroke-width="1.51"></path><path d="M594,1094L583,1260L775,1115Z" fill="#638bbe" stroke="#638bbe" stroke-width="1.51"></path><path d="M591,677L554,828L694,883Z" fill="#75abd3" stroke="#75abd3" stroke-width="1.51"></path><path d="M583,1260L483,1284L736,1343Z" fill="#6180af" stroke="#6180af" stroke-width="1.51"></path><path d="M573,-21L679,59L754,-99Z" fill="#bad7eb" stroke="#bad7eb" stroke-width="1.51"></path><path d="M567,285L562,377L756,389Z" fill="#9ecae1" stroke="#9ecae1" stroke-width="1.51"></path><path d="M562,377L588,485L756,389Z" fill="#96c5e0" stroke="#96c5e0" stroke-width="1.51"></path><path d="M605,-179L573,-21L754,-99Z" fill="#c1dced" stroke="#c1dced" stroke-width="1.51"></path><path d="M588,485L692,660L745,524Z" fill="#83badb" stroke="#83badb" stroke-width="1.51"></path><path d="M588,485L591,677L692,660Z" fill="#83b8da" stroke="#83b8da" stroke-width="1.51"></path><path d="M544,1030L594,1094L699,945Z" fill="#6b98c8" stroke="#6b98c8" stroke-width="1.51"></path><path d="M694,883L554,828L699,945Z" fill="#6ea2cf" stroke="#6ea2cf" stroke-width="1.51"></path><path d="M554,828L544,1030L699,945Z" fill="#6f9fce" stroke="#6f9fce" stroke-width="1.51"></path><path d="M573,-21L595,91L679,59Z" fill="#bad7ea" stroke="#bad7ea" stroke-width="1.51"></path><path d="M484,1034L544,1030L554,828Z" fill="#739fce" stroke="#739fce" stroke-width="1.51"></path><path d="M401,145L427,271L567,285Z" fill="#b5d3e9" stroke="#b5d3e9" stroke-width="1.51"></path><path d="M416,661L554,828L591,677Z" fill="#81b3d8" stroke="#81b3d8" stroke-width="1.51"></path><path d="M588,485L462,568L591,677Z" fill="#8abcdd" stroke="#8abcdd" stroke-width="1.51"></path><path d="M473,1163L583,1260L594,1094Z" fill="#6a8cbf" stroke="#6a8cbf" stroke-width="1.51"></path><path d="M401,145L567,285L595,91Z" fill="#b7d5e9" stroke="#b7d5e9" stroke-width="1.51"></path><path d="M393,-102L573,-21L605,-179Z" fill="#c9dfef" stroke="#c9dfef" stroke-width="1.51"></path><path d="M396,-245L393,-102L605,-179Z" fill="#d1e3f2" stroke="#d1e3f2" stroke-width="1.51"></path><path d="M401,848L484,1034L554,828Z" fill="#79a5d1" stroke="#79a5d1" stroke-width="1.51"></path><path d="M462,568L416,661L591,677Z" fill="#8abadc" stroke="#8abadc" stroke-width="1.51"></path><path d="M573,-21L401,145L595,91Z" fill="#bfd8ec" stroke="#bfd8ec" stroke-width="1.51"></path><path d="M473,1163L483,1284L583,1260Z" fill="#6a87b8" stroke="#6a87b8" stroke-width="1.51"></path><path d="M544,1030L484,1034L594,1094Z" fill="#6f97c8" stroke="#6f97c8" stroke-width="1.51"></path><path d="M484,1034L473,1163L594,1094Z" fill="#6f93c5" stroke="#6f93c5" stroke-width="1.51"></path><path d="M562,377L439,358L588,485Z" fill="#9fc8e2" stroke="#9fc8e2" stroke-width="1.51"></path><path d="M439,358L462,568L588,485Z" fill="#99c5e2" stroke="#99c5e2" stroke-width="1.51"></path><path d="M416,661L401,848L554,828Z" fill="#82b0d7" stroke="#82b0d7" stroke-width="1.51"></path><path d="M439,358L562,377L567,285Z" fill="#a7cde4" stroke="#a7cde4" stroke-width="1.51"></path><path d="M393,-102L401,145L573,-21Z" fill="#c7ddef" stroke="#c7ddef" stroke-width="1.51"></path><path d="M427,271L439,358L567,285Z" fill="#aed0e6" stroke="#aed0e6" stroke-width="1.51"></path><path d="M393,-102L318,-75L401,145Z" fill="#cee0f2" stroke="#cee0f2" stroke-width="1.51"></path><path d="M439,358L329,364L462,568Z" fill="#a4cae4" stroke="#a4cae4" stroke-width="1.51"></path><path d="M329,364L292,569L462,568Z" fill="#a0c7e4" stroke="#a0c7e4" stroke-width="1.51"></path><path d="M473,1163L329,1174L483,1284Z" fill="#718cbe" stroke="#718cbe" stroke-width="1.51"></path><path d="M329,1174L319,1297L483,1284Z" fill="#738ab9" stroke="#738ab9" stroke-width="1.51"></path><path d="M401,848L234,951L484,1034Z" fill="#7fa4d2" stroke="#7fa4d2" stroke-width="1.51"></path><path d="M329,1174L473,1163L484,1034Z" fill="#7494c6" stroke="#7494c6" stroke-width="1.51"></path><path d="M234,951L329,1174L484,1034Z" fill="#7c9ccc" stroke="#7c9ccc" stroke-width="1.51"></path><path d="M282,857L234,951L401,848Z" fill="#85abd6" stroke="#85abd6" stroke-width="1.51"></path><path d="M292,569L416,661L462,568Z" fill="#94bfe0" stroke="#94bfe0" stroke-width="1.51"></path><path d="M236,721L282,857L401,848Z" fill="#89b2d9" stroke="#89b2d9" stroke-width="1.51"></path><path d="M318,-75L240,118L401,145Z" fill="#ccdef1" stroke="#ccdef1" stroke-width="1.51"></path><path d="M236,721L401,848L416,661Z" fill="#8bb6db" stroke="#8bb6db" stroke-width="1.51"></path><path d="M401,145L335,244L427,271Z" fill="#bbd6eb" stroke="#bbd6eb" stroke-width="1.51"></path><path d="M427,271L329,364L439,358Z" fill="#b0d1e7" stroke="#b0d1e7" stroke-width="1.51"></path><path d="M234,951L184,1040L329,1174Z" fill="#819ecd" stroke="#819ecd" stroke-width="1.51"></path><path d="M154,-180L268,-165L396,-245Z" fill="#ddeaf6" stroke="#ddeaf6" stroke-width="1.51"></path><path d="M268,-165L393,-102L396,-245Z" fill="#d8e6f5" stroke="#d8e6f5" stroke-width="1.51"></path><path d="M335,244L329,364L427,271Z" fill="#b6d4e9" stroke="#b6d4e9" stroke-width="1.51"></path><path d="M292,569L236,721L416,661Z" fill="#94bedf" stroke="#94bedf" stroke-width="1.51"></path><path d="M268,-165L318,-75L393,-102Z" fill="#d6e5f4" stroke="#d6e5f4" stroke-width="1.51"></path><path d="M240,118L335,244L401,145Z" fill="#c4daee" stroke="#c4daee" stroke-width="1.51"></path><path d="M189,345L151,542L292,569Z" fill="#a7cce6" stroke="#a7cce6" stroke-width="1.51"></path><path d="M103,-38L240,118L318,-75Z" fill="#d3e3f4" stroke="#d3e3f4" stroke-width="1.51"></path><path d="M189,345L292,569L329,364Z" fill="#abcee6" stroke="#abcee6" stroke-width="1.51"></path><path d="M184,1040L167,1091L329,1174Z" fill="#809bcb" stroke="#809bcb" stroke-width="1.51"></path><path d="M115,1329L319,1297L329,1174Z" fill="#778bb9" stroke="#778bb9" stroke-width="1.51"></path><path d="M167,1091L115,1329L329,1174Z" fill="#7d93c2" stroke="#7d93c2" stroke-width="1.51"></path><path d="M240,118L128,267L335,244Z" fill="#c3dbed" stroke="#c3dbed" stroke-width="1.51"></path><path d="M128,267L189,345L335,244Z" fill="#bdd8eb" stroke="#bdd8eb" stroke-width="1.51"></path><path d="M189,345L329,364L335,244Z" fill="#b7d5e9" stroke="#b7d5e9" stroke-width="1.51"></path><path d="M268,-165L103,-38L318,-75Z" fill="#d8e7f5" stroke="#d8e7f5" stroke-width="1.51"></path><path d="M103,-38L105,79L240,118Z" fill="#d3e3f3" stroke="#d3e3f3" stroke-width="1.51"></path><path d="M154,-180L103,-38L268,-165Z" fill="#ddeaf7" stroke="#ddeaf7" stroke-width="1.51"></path><path d="M236,721L155,726L282,857Z" fill="#8fb7dc" stroke="#8fb7dc" stroke-width="1.51"></path><path d="M155,726L146,886L282,857Z" fill="#8db4da" stroke="#8db4da" stroke-width="1.51"></path><path d="M151,542L236,721L292,569Z" fill="#9bc3e2" stroke="#9bc3e2" stroke-width="1.51"></path><path d="M151,542L155,726L236,721Z" fill="#98c0e0" stroke="#98c0e0" stroke-width="1.51"></path><path d="M146,886L234,951L282,857Z" fill="#88acd6" stroke="#88acd6" stroke-width="1.51"></path><path d="M33,1239L115,1329L167,1091Z" fill="#7f93c1" stroke="#7f93c1" stroke-width="1.51"></path><path d="M35,1176L33,1239L167,1091Z" fill="#8498c8" stroke="#8498c8" stroke-width="1.51"></path><path d="M105,79L128,267L240,118Z" fill="#ccdff1" stroke="#ccdff1" stroke-width="1.51"></path><path d="M146,886L184,1040L234,951Z" fill="#87a8d4" stroke="#87a8d4" stroke-width="1.51"></path><path d="M105,79L21,110L128,267Z" fill="#cfe1f2" stroke="#cfe1f2" stroke-width="1.51"></path><path d="M-49,354L-47,539L151,542Z" fill="#b0d1e9" stroke="#b0d1e9" stroke-width="1.51"></path><path d="M151,542L38,671L155,726Z" fill="#9dc3e2" stroke="#9dc3e2" stroke-width="1.51"></path><path d="M146,886L19,979L184,1040Z" fill="#8aa9d4" stroke="#8aa9d4" stroke-width="1.51"></path><path d="M-49,354L151,542L189,345Z" fill="#b4d4e9" stroke="#b4d4e9" stroke-width="1.51"></path><path d="M128,267L-49,354L189,345Z" fill="#bedaec" stroke="#bedaec" stroke-width="1.51"></path><path d="M19,979L167,1091L184,1040Z" fill="#87a3d0" stroke="#87a3d0" stroke-width="1.51"></path><path d="M38,-44L103,-38L154,-180Z" fill="#ddeaf7" stroke="#ddeaf7" stroke-width="1.51"></path><path d="M-1,-178L38,-44L154,-180Z" fill="#e2edf8" stroke="#e2edf8" stroke-width="1.51"></path><path d="M-55,811L146,886L155,726Z" fill="#93b8dc" stroke="#93b8dc" stroke-width="1.51"></path><path d="M38,671L-55,811L155,726Z" fill="#98bedf" stroke="#98bedf" stroke-width="1.51"></path><path d="M19,979L35,1176L167,1091Z" fill="#87a0ce" stroke="#87a0ce" stroke-width="1.51"></path><path d="M-47,539L38,671L151,542Z" fill="#a5c9e5" stroke="#a5c9e5" stroke-width="1.51"></path><path d="M-55,811L19,979L146,886Z" fill="#91b2d9" stroke="#91b2d9" stroke-width="1.51"></path><path d="M103,-38L38,-44L105,79Z" fill="#d9e7f5" stroke="#d9e7f5" stroke-width="1.51"></path><path d="M21,110L-44,269L128,267Z" fill="#cbe0f0" stroke="#cbe0f0" stroke-width="1.51"></path><path d="M-44,269L-49,354L128,267Z" fill="#c4ddee" stroke="#c4ddee" stroke-width="1.51"></path><path d="M38,-44L21,110L105,79Z" fill="#d7e6f5" stroke="#d7e6f5" stroke-width="1.51"></path><path d="M33,1239L-151,1295L115,1329Z" fill="#818fba" stroke="#818fba" stroke-width="1.51"></path><path d="M-55,811L-110,849L19,979Z" fill="#95b4db" stroke="#95b4db" stroke-width="1.51"></path><path d="M19,979L-165,1025L35,1176Z" fill="#8ca5d1" stroke="#8ca5d1" stroke-width="1.51"></path><path d="M-165,1025L-143,1178L35,1176Z" fill="#8da0cd" stroke="#8da0cd" stroke-width="1.51"></path><path d="M-143,1178L33,1239L35,1176Z" fill="#8699c6" stroke="#8699c6" stroke-width="1.51"></path><path d="M-47,539L-189,729L38,671Z" fill="#a5c8e4" stroke="#a5c8e4" stroke-width="1.51"></path><path d="M-189,729L-55,811L38,671Z" fill="#9ec1e1" stroke="#9ec1e1" stroke-width="1.51"></path><path d="M-1,-178L-202,-40L38,-44Z" fill="#e4eef8" stroke="#e4eef8" stroke-width="1.51"></path><path d="M-160,108L21,110L38,-44Z" fill="#dae8f6" stroke="#dae8f6" stroke-width="1.51"></path><path d="M-202,-40L-160,108L38,-44Z" fill="#e0ecf8" stroke="#e0ecf8" stroke-width="1.51"></path><path d="M-160,108L-44,269L21,110Z" fill="#d4e4f4" stroke="#d4e4f4" stroke-width="1.51"></path><path d="M-143,1178L-151,1295L33,1239Z" fill="#8796c1" stroke="#8796c1" stroke-width="1.51"></path><path d="M-49,354L-161,419L-47,539Z" fill="#b9d7ec" stroke="#b9d7ec" stroke-width="1.51"></path><path d="M-160,108L-153,244L-44,269Z" fill="#d2e4f3" stroke="#d2e4f3" stroke-width="1.51"></path><path d="M-195,-169L-202,-40L-1,-178Z" fill="#e9f2fb" stroke="#e9f2fb" stroke-width="1.51"></path><path d="M-110,849L-165,1025L19,979Z" fill="#93afd8" stroke="#93afd8" stroke-width="1.51"></path><path d="M-181,548L-189,729L-47,539Z" fill="#abcde7" stroke="#abcde7" stroke-width="1.51"></path><path d="M-161,419L-181,548L-47,539Z" fill="#b4d4ea" stroke="#b4d4ea" stroke-width="1.51"></path><path d="M-153,244L-49,354L-44,269Z" fill="#c9e0ef" stroke="#c9e0ef" stroke-width="1.51"></path><path d="M-189,729L-110,849L-55,811Z" fill="#9dbddf" stroke="#9dbddf" stroke-width="1.51"></path><path d="M-153,244L-161,419L-49,354Z" fill="#c6dfee" stroke="#c6dfee" stroke-width="1.51"></path><path d="M-189,729L-165,1025L-110,849Z" fill="#9ab8dd" stroke="#9ab8dd" stroke-width="1.51"></path><path d="M-165,1025L-151,1295L-143,1178Z" fill="#8d9ecb" stroke="#8d9ecb" stroke-width="1.51"></path><path d="M-165,1025L-189,729L-151,1295Z" fill="#94acd5" stroke="#94acd5" stroke-width="1.51"></path><path d="M-160,108L-202,-40L-153,244Z" fill="#ddeaf7" stroke="#ddeaf7" stroke-width="1.51"></path><path d="M-202,-40L-161,419L-153,244Z" fill="#d4e5f4" stroke="#d4e5f4" stroke-width="1.51"></path><path d="M-202,-40L-181,548L-161,419Z" fill="#cbe2f0" stroke="#cbe2f0" stroke-width="1.51"></path><path d="M-202,-40L-189,729L-181,548Z" fill="#c1dbed" stroke="#c1dbed" stroke-width="1.51"></path></svg>